<?xml version="1.0" encoding="utf-8"?>
<!-- Generator: Adobe Illustrator 19.0.0, SVG Export Plug-In . SVG Version: 6.00 Build 0)  -->
<svg version="1.1" id="Layer_1" xmlns="http://www.w3.org/2000/svg" xmlns:xlink="http://www.w3.org/1999/xlink" x="0px" y="0px"
	 viewBox="0 0 500 500" style="enable-background:new 0 0 500 500;" xml:space="preserve">
<style type="text/css">
	.st0{fill:#1A5DAD;}
	.st1{fill:#FFFFFF;}
	.st2{fill:#EE293D;}
</style>
<g id="XMLID_1_">
	<path id="XMLID_57_" class="st0" d="M381.9,250c0,79.3-65.3,144.5-144.7,144.5c-79.4,0-144.7-65.3-144.7-144.5
		c0-79.3,63.8-144.5,144.7-144.5C315.1,105.5,381.9,170.7,381.9,250"/>
	<path id="XMLID_56_" class="st1" d="M269.9,326.1c61.8,25.4,51.1-38.8,18.1-88c-18.7-27.9-43-51.1-58.4-62.3
		c-50.9-37.2-82.4-14.6-46.4,58.7c11.6,23.7,26.6,39.7,38.2,54.8c8.9,11.5,26.3,17.3,20.1,22.7c-6.9,6.2-23.6-21-23.6-21
		c-12.3-14.9-24.1-30.7-36.2-52.5c-27.6-49.7-23.7-100.4,26.4-78.3c42.5,18.8,83,71.4,99.3,108.7c7.5,17.3,28.1,85.5-37.3,57.9"/>
	<path id="XMLID_55_" class="st2" d="M77.6,292.8c27.2-18.1,53-29.8,96.9-44.3c61.7-20.4,108.1-34.1,165-62.7
		c25.5-12.8,69.7-41.5,85.5-66.5c-4.7,9.7-19.4,28.5-26,36.8c-77.2,96.7-241.8,91.2-320.2,137.7"/>
	<path id="XMLID_54_" class="st1" d="M117.1,222.2c24.9,0.2,22.4-0.1,22.7,0.2c0.4,0,19.9,33.5,19.9,33.8c0,0.1-0.1-11.9-0.1-27
		c0-1.7-4.8-6.8-4.6-6.8c7.1,0,16.4,0.1,16.4,0.1c-3.5,4.1-4.2,3.7-4.2,6.2c-0.1,8.1-0.2,23,0,39.7c0,2.5,1.9,3.5,4.9,7.8h-22.8
		c-7.4-12.3-21-35.4-20.9-35.4c0.1,0.1-0.3,14.5,0.1,26.1c0.1,3.8,1.9,5.1,5.1,8.6c0,0,3.7-0.1-17.8,0.1c6.5-3.5,5.7-7.8,5.7-8
		c-0.2-16,0-29.7,0-38.5c0-1.4-0.1-1.3-4.6-6.8"/>
	<path id="XMLID_53_" class="st1" d="M194.9,246.9c2.1-7.3,3.9-13.7,4.7-18c0.1-0.7-1.6-3.3-4.4-5.9l-0.2-0.4
		c13.3,0,27.2,0.1,27.2,0.1c3.6,8.8,11.9,33.6,18.1,48.8c1.6,4,4.5,4.8,4.5,4.8c-11.3-0.1-32.3,0-32.2-0.1c5.7-5.1,4.9-5.1,2.5-12.5
		h-17.7c-3.6,8.4,1.1,12.3,1.7,12.3c-4,0.2-17.7,0-17.7,0c7.4-5.2,7-6.8,7-6.8C190.5,262,192.8,254,194.9,246.9l7.3,0
		c-1.6,5-3.1,10-3.1,10h14.1l-7.8-20c0,0-1.6,5-3.1,10L194.9,246.9"/>
	<path id="XMLID_52_" class="st1" d="M316.5,247.6c2.1-7.3,3.9-13.7,4.7-18c0.1-0.7-1.6-3.3-4.4-5.9l-0.2-0.4
		c13.3,0,27.2,0.1,27.2,0.1c3.6,8.8,11.9,33.6,18.1,48.8c1.6,4,4.5,4.8,4.5,4.8c-11.3-0.1-32.3,0-32.2-0.1c5.7-5.1,4.9-5.1,2.5-12.5
		H319c-3.6,8.4,1.1,12.3,1.7,12.3c-4,0.2-17.7,0-17.7,0c7.4-5.2,7-6.8,7-6.8C312,262.7,314.4,254.8,316.5,247.6l7.3,0
		c-1.6,5-3.1,10-3.1,10h14.1l-7.8-20c0,0-1.6,5-3.1,10L316.5,247.6"/>
	<path id="XMLID_51_" class="st1" d="M293.6,235.7c-0.3-10.3,0-13.6,0-13.6c-4.5,3.6-2.2,3.2-13.5,1.3
		c-32.4-5.4-34.9,24.9-17.3,31.7c14.8,5.7,20.1,6.8,17.8,12.2c-0.7,1.7-14.2,8.1-28.1-4.8l0.3,18c1.7-1.8,6.5-5.1,6.5-5.1
		c0.1,0,15.1,6.6,28.6-0.3c20.7-10.6,10.4-27.7-11.7-34.5c-18.4-5.7-1-18.8,17.3-4.8"/>
	<path id="XMLID_50_" class="st1" d="M239.3,118.6c0,0.6-0.5,1.2-1.2,1.2c-0.6,0-1.2-0.5-1.2-1.2c0-0.6,0.5-1.2,1.2-1.2
		C238.7,117.4,239.3,117.9,239.3,118.6"/>
	<path id="XMLID_49_" class="st1" d="M247.4,136.4c0,0.8-0.7,1.4-1.5,1.4c-0.8,0-1.5-0.7-1.5-1.4c0-0.8,0.7-1.4,1.5-1.4
		C246.8,135,247.4,135.6,247.4,136.4"/>
	<path id="XMLID_48_" class="st1" d="M268.6,165.6c0,0.8-0.7,1.4-1.5,1.4c-0.8,0-1.5-0.7-1.5-1.4c0-0.8,0.6-1.5,1.4-1.5
		C267.9,164.1,268.6,164.8,268.6,165.6"/>
	<path id="XMLID_47_" class="st1" d="M234.6,146.5c0,0.6-0.5,1.2-1.2,1.2c-0.6,0-1.2-0.5-1.2-1.2c0-0.6,0.5-1.2,1.2-1.2
		C234,145.3,234.6,145.8,234.6,146.5"/>
	<path id="XMLID_46_" class="st1" d="M247.3,153.2c0,0.6-0.5,1.2-1.2,1.2c-0.6,0-1.2-0.5-1.2-1.2c0-0.6,0.5-1.2,1.2-1.2
		C246.7,152,247.3,152.5,247.3,153.2"/>
	<path id="XMLID_45_" class="st1" d="M230.7,134.4c0,0.8-0.7,1.4-1.5,1.4c-0.8,0-1.5-0.7-1.5-1.4c0-0.8,0.7-1.5,1.5-1.5
		C230.1,133,230.7,133.6,230.7,134.4"/>
	<path id="XMLID_44_" class="st1" d="M211.5,146.1c0,0.6-0.5,1.2-1.2,1.2c-0.6,0-1.2-0.5-1.2-1.2c0-0.6,0.5-1.2,1.2-1.2
		C211,144.9,211.5,145.5,211.5,146.1"/>
	<path id="XMLID_43_" class="st1" d="M215,148.5c0,0.6-0.5,1.2-1.2,1.2c-0.6,0-1.2-0.5-1.2-1.2c0-0.6,0.5-1.2,1.2-1.2
		C214.4,147.3,215,147.8,215,148.5"/>
	<path id="XMLID_42_" class="st1" d="M218.4,150.8c0,0.6-0.5,1.2-1.2,1.2c-0.6,0-1.2-0.5-1.2-1.2c0-0.6,0.5-1.2,1.2-1.2
		C217.9,149.7,218.4,150.2,218.4,150.8"/>
	<path id="XMLID_41_" class="st1" d="M213.2,155.4c0,0.6-0.5,1.2-1.2,1.2c-0.6,0-1.2-0.5-1.2-1.2c0-0.6,0.5-1.2,1.2-1.2
		C212.6,154.2,213.2,154.7,213.2,155.4"/>
	<path id="XMLID_40_" class="st1" d="M185.8,174.6c0,0.6-0.5,1.2-1.2,1.2c-0.6,0-1.2-0.5-1.2-1.2c0-0.6,0.5-1.2,1.2-1.2
		C185.3,173.4,185.8,173.9,185.8,174.6"/>
	<path id="XMLID_39_" class="st1" d="M190.9,180.7c0,0.6-0.5,1.2-1.2,1.2c-0.6,0-1.2-0.5-1.2-1.2c0-0.6,0.5-1.2,1.2-1.2
		C190.3,179.5,190.9,180.1,190.9,180.7"/>
	<path id="XMLID_38_" class="st1" d="M186.8,280.2c0,0.6-0.5,1.2-1.2,1.2c-0.6,0-1.2-0.5-1.2-1.2c0-0.6,0.5-1.2,1.2-1.2
		C186.3,279,186.8,279.5,186.8,280.2"/>
	<path id="XMLID_37_" class="st1" d="M187.6,307.6c0,0.8-0.7,1.4-1.5,1.4c-0.8,0-1.5-0.7-1.5-1.4c0-0.8,0.7-1.4,1.5-1.4
		C186.9,306.1,187.6,306.8,187.6,307.6"/>
	<path id="XMLID_36_" class="st1" d="M172,321.6c0,0.6-0.5,1.2-1.2,1.2c-0.6,0-1.2-0.5-1.2-1.2c0-0.6,0.5-1.2,1.2-1.2
		C171.4,320.5,172,321,172,321.6"/>
	<path id="XMLID_35_" class="st1" d="M153.3,327.3c0,0.8-0.7,1.4-1.5,1.4c-0.8,0-1.5-0.7-1.5-1.4c0-0.8,0.7-1.5,1.5-1.5
		C152.6,325.9,153.3,326.5,153.3,327.3"/>
	<path id="XMLID_34_" class="st1" d="M149.5,314.7c0,0.8-0.7,1.4-1.4,1.4c-0.8,0-1.5-0.7-1.5-1.4c0-0.8,0.7-1.5,1.5-1.5
		C148.8,313.2,149.5,313.9,149.5,314.7"/>
	<path id="XMLID_33_" class="st1" d="M147.3,322.7c0,0.6-0.5,1.2-1.2,1.2c-0.6,0-1.2-0.5-1.2-1.2c0-0.6,0.5-1.2,1.2-1.2
		C146.8,321.5,147.3,322.1,147.3,322.7"/>
	<path id="XMLID_32_" class="st1" d="M133.3,316c0,0.6-0.5,1.2-1.2,1.2c-0.6,0-1.2-0.5-1.2-1.2c0-0.6,0.5-1.2,1.2-1.2
		C132.8,314.8,133.3,315.4,133.3,316"/>
	<path id="XMLID_31_" class="st1" d="M182.1,338.7c0,0.6-0.5,1.2-1.1,1.2c-0.6,0-1.2-0.5-1.2-1.2c0-0.6,0.5-1.2,1.2-1.2
		C181.6,337.5,182.1,338,182.1,338.7"/>
	<path id="XMLID_30_" class="st1" d="M196.8,327.9c0,0.8-0.6,1.5-1.4,1.5c-0.8,0-1.5-0.7-1.5-1.5c0-0.8,0.7-1.4,1.5-1.4
		C196.1,326.4,196.8,327.1,196.8,327.9"/>
	<path id="XMLID_29_" class="st1" d="M198.5,341.7c0,0.6-0.6,1.2-1.2,1.2c-0.6,0-1.2-0.5-1.2-1.2c0-0.6,0.5-1.2,1.2-1.2
		C197.9,340.6,198.5,341.1,198.5,341.7"/>
	<path id="XMLID_28_" class="st1" d="M258.8,328.5c0,0.6-0.5,1.2-1.2,1.2c-0.7,0-1.2-0.5-1.2-1.2c0-0.6,0.5-1.2,1.2-1.2
		C258.3,327.3,258.8,327.9,258.8,328.5"/>
	<path id="XMLID_27_" class="st1" d="M230.7,338.5c0,0.6-0.5,1.2-1.2,1.2c-0.6,0-1.2-0.5-1.2-1.2c0-0.6,0.5-1.2,1.2-1.2
		C230.2,337.3,230.7,337.8,230.7,338.5"/>
	<path id="XMLID_26_" class="st1" d="M306.4,352.8c0,0.6-0.5,1.2-1.2,1.2c-0.6,0-1.2-0.5-1.2-1.2c0-0.6,0.5-1.2,1.2-1.2
		C305.8,351.6,306.4,352.1,306.4,352.8"/>
	<path id="XMLID_25_" class="st1" d="M312.5,297.1c0,0.8-0.7,1.5-1.5,1.5c-0.8,0-1.5-0.7-1.5-1.5c0-0.8,0.7-1.5,1.5-1.5
		C311.9,295.6,312.5,296.3,312.5,297.1"/>
	<path id="XMLID_24_" class="st1" d="M300.9,305c0,0.6-0.5,1.2-1.2,1.2c-0.6,0-1.2-0.5-1.2-1.2c0-0.6,0.5-1.2,1.2-1.2
		C300.4,303.8,300.9,304.3,300.9,305"/>
	<path id="XMLID_23_" class="st1" d="M312.3,307.2c0,0.8-0.7,1.5-1.5,1.5c-0.8,0-1.5-0.7-1.5-1.5c0-0.8,0.7-1.4,1.5-1.4
		C311.7,305.8,312.3,306.4,312.3,307.2"/>
	<path id="XMLID_22_" class="st1" d="M300.9,321.3c0,0.6-0.5,1.2-1.2,1.2c-0.6,0-1.2-0.5-1.2-1.2c0-0.6,0.5-1.2,1.2-1.2
		C300.4,320.1,300.9,320.6,300.9,321.3"/>
	<path id="XMLID_21_" class="st1" d="M330.5,289.2c0,0.6-0.5,1.2-1.2,1.2c-0.6,0-1.2-0.5-1.2-1.2s0.5-1.2,1.2-1.2
		C329.9,288,330.5,288.6,330.5,289.2"/>
	<path id="XMLID_20_" class="st1" d="M333.3,296.4c0,0.8-0.6,1.5-1.4,1.5c-0.8,0-1.5-0.7-1.5-1.5c0-0.8,0.7-1.4,1.4-1.4
		C332.7,294.9,333.3,295.6,333.3,296.4"/>
	<path id="XMLID_19_" class="st1" d="M353.7,304.9c0,0.8-0.7,1.4-1.5,1.4c-0.8,0-1.5-0.7-1.5-1.4c0-0.8,0.7-1.5,1.5-1.5
		C353,303.4,353.7,304.1,353.7,304.9"/>
	<path id="XMLID_18_" class="st1" d="M333,320c0,0.6-0.5,1.2-1.2,1.2c-0.6,0-1.2-0.5-1.2-1.2c0-0.6,0.5-1.2,1.2-1.2
		C332.5,318.8,333,319.4,333,320"/>
	<path id="XMLID_17_" class="st1" d="M346.1,307.7c0,0.6-0.5,1.2-1.2,1.2c-0.6,0-1.2-0.5-1.2-1.2c0-0.6,0.5-1.2,1.2-1.2
		C345.5,306.5,346.1,307,346.1,307.7"/>
	<path id="XMLID_16_" class="st1" d="M343.7,326.7c0,0.6-0.5,1.2-1.2,1.2c-0.7,0-1.2-0.5-1.2-1.2c0-0.6,0.5-1.2,1.2-1.2
		C343.1,325.5,343.7,326.1,343.7,326.7"/>
	<path id="XMLID_15_" class="st1" d="M349.2,295.1c0,1-0.8,1.8-1.8,1.8c-1,0-1.8-0.8-1.8-1.8c0-1,0.8-1.8,1.8-1.8
		C348.4,293.3,349.2,294.1,349.2,295.1"/>
	<path id="XMLID_14_" class="st1" d="M347.4,289.6l-0.5,5l-4.9,0.5l5,0.5l0.5,5.2l0.5-5.2l4.9-0.6l-4.9-0.5L347.4,289.6"/>
	<path id="XMLID_13_" class="st1" d="M336.5,326.6c0,1-0.8,1.8-1.8,1.8c-1,0-1.8-0.8-1.8-1.8c0-1,0.8-1.8,1.8-1.8
		C335.7,324.8,336.5,325.6,336.5,326.6"/>
	<path id="XMLID_12_" class="st1" d="M334.7,321.1l-0.5,5l-4.9,0.5l5,0.5l0.5,5.2l0.5-5.2l4.9-0.6l-4.9-0.5L334.7,321.1"/>
	<path id="XMLID_11_" class="st1" d="M201.2,177c0,1-0.8,1.8-1.8,1.8c-1,0-1.8-0.8-1.8-1.8c0-1,0.8-1.8,1.8-1.8
		C200.4,175.2,201.2,176,201.2,177"/>
	<path id="XMLID_10_" class="st1" d="M199.4,171.5l-0.5,5l-4.9,0.5l5,0.5l0.5,5.2l0.5-5.2l4.9-0.6l-4.9-0.5L199.4,171.5"/>
	<path id="XMLID_9_" class="st1" d="M268.7,133.2c0,1-0.8,1.8-1.8,1.8c-1,0-1.8-0.8-1.8-1.8c0-1,0.8-1.8,1.8-1.8
		C267.9,131.4,268.7,132.2,268.7,133.2"/>
	<path id="XMLID_8_" class="st1" d="M266.9,127.6l-0.5,5l-4.9,0.5l5,0.5l0.5,5.2l0.5-5.2l4.9-0.6l-4.9-0.5L266.9,127.6"/>
	<path id="XMLID_7_" class="st1" d="M186.7,355.6c0,1-0.8,1.8-1.8,1.8c-1,0-1.8-0.8-1.8-1.8c0-1,0.8-1.8,1.8-1.8
		C185.9,353.8,186.7,354.6,186.7,355.6"/>
	<path id="XMLID_6_" class="st1" d="M184.9,350.1l-0.5,5l-4.9,0.5l5,0.5l0.5,5.2l0.5-5.2l4.9-0.6l-4.9-0.5L184.9,350.1"/>
	<path id="XMLID_5_" class="st2" d="M425,119.4c-22,65.4-110.4,115.9-184.7,164.1c-44.9,29.1-89.4,62.6-120.1,91.1
		c-8.1,7.5,1.6-2.8-1.5,0.4c42.8-49.3,92-78.6,119.2-97.1c46-31.2,72.2-39.1,151.5-112.2"/>
	<path id="XMLID_4_" class="st2" d="M96,281.4c-7.9,3.9-15,7.7-21,11.4l3.7,1.3c5.3-3.2,11.6-6.6,18.2-9.6"/>
	<path id="XMLID_3_" class="st2" d="M137.8,354.6c-7.2,6.3-14.7,13.1-22.2,20.1l-0.3,5c6.9-7.1,15.3-14.7,25.1-22.8"/>
	<path id="XMLID_2_" class="st1" d="M269.9,326.1c61.8,25.4,51.1-38.8,18.1-88c-18.7-27.9-41.7-50-58.4-62.3
		c-19.5-14.4-21.4-15.6-21.4-15.6c43.5,20.7,83,71.4,99.3,108.7c7.5,17.2,28.1,85.5-37.3,57.9"/>
</g>
</svg>
